<?xml version="1.0" encoding="UTF-8" standalone="no"?>
<!-- Created with Inkscape (http://www.inkscape.org/) -->

<svg
   xmlns:dc="http://purl.org/dc/elements/1.1/"
   xmlns:cc="http://creativecommons.org/ns#"
   xmlns:rdf="http://www.w3.org/1999/02/22-rdf-syntax-ns#"
   xmlns:svg="http://www.w3.org/2000/svg"
   xmlns="http://www.w3.org/2000/svg"
   xmlns:sodipodi="http://sodipodi.sourceforge.net/DTD/sodipodi-0.dtd"
   xmlns:inkscape="http://www.inkscape.org/namespaces/inkscape"
   version="1.0"
   width="8in"
   height="8in"
   id="svg2119"
   inkscape:version="0.91 r13725"
   sodipodi:docname="tibs.svg"
   inkscape:export-filename="/Users/gkiar/Dropbox/jhu/tibs/logo/tibsci.png"
   inkscape:export-xdpi="100"
   inkscape:export-ydpi="100">
  <metadata
     id="metadata39">
    <rdf:RDF>
      <cc:Work
         rdf:about="">
        <dc:format>image/svg+xml</dc:format>
        <dc:type
           rdf:resource="http://purl.org/dc/dcmitype/StillImage" />
        <dc:title></dc:title>
      </cc:Work>
    </rdf:RDF>
  </metadata>
  <sodipodi:namedview
     pagecolor="#ffffff"
     bordercolor="#666666"
     borderopacity="1"
     objecttolerance="10"
     gridtolerance="10"
     guidetolerance="10"
     inkscape:pageopacity="0"
     inkscape:pageshadow="2"
     inkscape:window-width="2001"
     inkscape:window-height="1139"
     id="namedview37"
     showgrid="false"
     inkscape:zoom="1.0327366"
     inkscape:cx="211.91106"
     inkscape:cy="381.29272"
     inkscape:window-x="0"
     inkscape:window-y="1"
     inkscape:window-maximized="0"
     inkscape:current-layer="svg2119"
     fit-margin-top="0"
     fit-margin-left="0"
     fit-margin-right="0"
     fit-margin-bottom="0"
     units="in" />
  <defs
     id="defs2121">
    <inkscape:path-effect
       effect="skeletal"
       id="path-effect5083"
       is_visible="true"
       pattern="M 0,0 1,0"
       copytype="repeated_stretched"
       prop_scale="1.05"
       scale_y_rel="false"
       spacing="0"
       normal_offset="0"
       tang_offset="0"
       prop_units="false"
       vertical_pattern="false"
       fuse_tolerance="0" />
    <inkscape:path-effect
       effect="bend_path"
       id="path-effect5081"
       is_visible="true"
       bendpath="m 1146.1128,326.51338 708.6281,2.21011"
       prop_scale="1.16"
       scale_y_rel="false"
       vertical="false"
       bendpath-nodetypes="cc" />
  </defs>
  <g
     id="g4931"
     transform="matrix(0.41090494,0,0,0.41090494,670.08114,566.70452)" />
  <g
     id="g4933"
     transform="matrix(0.41090494,0,0,0.41090494,670.08114,566.70452)" />
  <g
     id="g4935"
     transform="matrix(0.41090494,0,0,0.41090494,670.08114,566.70452)" />
  <g
     id="g4937"
     transform="matrix(0.41090494,0,0,0.41090494,670.08114,566.70452)" />
  <g
     id="g4939"
     transform="matrix(0.41090494,0,0,0.41090494,670.08114,566.70452)" />
  <g
     id="g4941"
     transform="matrix(0.41090494,0,0,0.41090494,670.08114,566.70452)" />
  <g
     id="g4943"
     transform="matrix(0.41090494,0,0,0.41090494,670.08114,566.70452)" />
  <g
     id="g4945"
     transform="matrix(0.41090494,0,0,0.41090494,670.08114,566.70452)" />
  <g
     id="g4947"
     transform="matrix(0.41090494,0,0,0.41090494,670.08114,566.70452)" />
  <g
     id="g4949"
     transform="matrix(0.41090494,0,0,0.41090494,670.08114,566.70452)" />
  <g
     id="g4951"
     transform="matrix(0.41090494,0,0,0.41090494,670.08114,566.70452)" />
  <g
     id="g4953"
     transform="matrix(0.41090494,0,0,0.41090494,670.08114,566.70452)" />
  <g
     id="g4955"
     transform="matrix(0.41090494,0,0,0.41090494,670.08114,566.70452)" />
  <g
     id="g4957"
     transform="matrix(0.41090494,0,0,0.41090494,670.08114,566.70452)" />
  <g
     id="g4959"
     transform="matrix(0.41090494,0,0,0.41090494,670.08114,566.70452)" />
  <g
     transform="translate(-549.97407,1157.7101)"
     id="g5058">
    <g
       id="g5060" />
    <g
       id="g5070"
       transform="translate(-398.53912,411.66569)" />
  </g>
  <g
     style="fill:#4a484c;fill-opacity:1"
     id="g9649"
     transform="matrix(0.61442448,0,0,0.61442448,65.114597,656.63006)" />
  <g
     style="fill:#4a484c;fill-opacity:1"
     id="g9651"
     transform="matrix(0.61442448,0,0,0.61442448,65.114597,656.63006)" />
  <g
     style="fill:#4a484c;fill-opacity:1"
     id="g9653"
     transform="matrix(0.61442448,0,0,0.61442448,65.114597,656.63006)" />
  <g
     style="fill:#4a484c;fill-opacity:1"
     id="g9655"
     transform="matrix(0.61442448,0,0,0.61442448,65.114597,656.63006)" />
  <g
     style="fill:#4a484c;fill-opacity:1"
     id="g9657"
     transform="matrix(0.61442448,0,0,0.61442448,65.114597,656.63006)" />
  <g
     style="fill:#4a484c;fill-opacity:1"
     id="g9659"
     transform="matrix(0.61442448,0,0,0.61442448,65.114597,656.63006)" />
  <g
     style="fill:#4a484c;fill-opacity:1"
     id="g9661"
     transform="matrix(0.61442448,0,0,0.61442448,65.114597,656.63006)" />
  <g
     style="fill:#4a484c;fill-opacity:1"
     id="g9663"
     transform="matrix(0.61442448,0,0,0.61442448,65.114597,656.63006)" />
  <g
     style="fill:#4a484c;fill-opacity:1"
     id="g9665"
     transform="matrix(0.61442448,0,0,0.61442448,65.114597,656.63006)" />
  <g
     style="fill:#4a484c;fill-opacity:1"
     id="g9667"
     transform="matrix(0.61442448,0,0,0.61442448,65.114597,656.63006)" />
  <g
     style="fill:#4a484c;fill-opacity:1"
     id="g9669"
     transform="matrix(0.61442448,0,0,0.61442448,65.114597,656.63006)" />
  <g
     style="fill:#4a484c;fill-opacity:1"
     id="g9671"
     transform="matrix(0.61442448,0,0,0.61442448,65.114597,656.63006)" />
  <g
     style="fill:#4a484c;fill-opacity:1"
     id="g9673"
     transform="matrix(0.61442448,0,0,0.61442448,65.114597,656.63006)" />
  <g
     style="fill:#4a484c;fill-opacity:1"
     id="g9675"
     transform="matrix(0.61442448,0,0,0.61442448,65.114597,656.63006)" />
  <g
     style="fill:#4a484c;fill-opacity:1"
     id="g9677"
     transform="matrix(0.61442448,0,0,0.61442448,65.114597,656.63006)" />
  <g
     id="g9773"
     style="fill:#4a484c;fill-opacity:1"
     transform="matrix(-0.32770497,0,0,0.32770497,360.36578,673.88218)" />
  <g
     id="g9775"
     style="fill:#4a484c;fill-opacity:1"
     transform="matrix(-0.32770497,0,0,0.32770497,360.36578,673.88218)" />
  <g
     id="g9777"
     style="fill:#4a484c;fill-opacity:1"
     transform="matrix(-0.32770497,0,0,0.32770497,360.36578,673.88218)" />
  <g
     id="g9779"
     style="fill:#4a484c;fill-opacity:1"
     transform="matrix(-0.32770497,0,0,0.32770497,360.36578,673.88218)" />
  <g
     id="g9781"
     style="fill:#4a484c;fill-opacity:1"
     transform="matrix(-0.32770497,0,0,0.32770497,360.36578,673.88218)" />
  <g
     id="g9783"
     style="fill:#4a484c;fill-opacity:1"
     transform="matrix(-0.32770497,0,0,0.32770497,360.36578,673.88218)" />
  <g
     id="g9785"
     style="fill:#4a484c;fill-opacity:1"
     transform="matrix(-0.32770497,0,0,0.32770497,360.36578,673.88218)" />
  <g
     id="g9787"
     style="fill:#4a484c;fill-opacity:1"
     transform="matrix(-0.32770497,0,0,0.32770497,360.36578,673.88218)" />
  <g
     id="g9789"
     style="fill:#4a484c;fill-opacity:1"
     transform="matrix(-0.32770497,0,0,0.32770497,360.36578,673.88218)" />
  <g
     id="g9791"
     style="fill:#4a484c;fill-opacity:1"
     transform="matrix(-0.32770497,0,0,0.32770497,360.36578,673.88218)" />
  <g
     id="g9793"
     style="fill:#4a484c;fill-opacity:1"
     transform="matrix(-0.32770497,0,0,0.32770497,360.36578,673.88218)" />
  <g
     id="g9795"
     style="fill:#4a484c;fill-opacity:1"
     transform="matrix(-0.32770497,0,0,0.32770497,360.36578,673.88218)" />
  <g
     id="g9797"
     style="fill:#4a484c;fill-opacity:1"
     transform="matrix(-0.32770497,0,0,0.32770497,360.36578,673.88218)" />
  <g
     id="g9799"
     style="fill:#4a484c;fill-opacity:1"
     transform="matrix(-0.32770497,0,0,0.32770497,360.36578,673.88218)" />
  <g
     id="g9801"
     style="fill:#4a484c;fill-opacity:1"
     transform="matrix(-0.32770497,0,0,0.32770497,360.36578,673.88218)" />
  <g
     id="g9879"
     style="fill:#4a484c;fill-opacity:1"
     transform="matrix(0.61442448,0,0,0.61442448,371.21423,549.43994)" />
  <g
     id="g9881"
     style="fill:#4a484c;fill-opacity:1"
     transform="matrix(0.61442448,0,0,0.61442448,371.21423,549.43994)" />
  <g
     id="g9883"
     style="fill:#4a484c;fill-opacity:1"
     transform="matrix(0.61442448,0,0,0.61442448,371.21423,549.43994)" />
  <g
     id="g9885"
     style="fill:#4a484c;fill-opacity:1"
     transform="matrix(0.61442448,0,0,0.61442448,371.21423,549.43994)" />
  <g
     id="g9887"
     style="fill:#4a484c;fill-opacity:1"
     transform="matrix(0.61442448,0,0,0.61442448,371.21423,549.43994)" />
  <g
     id="g9889"
     style="fill:#4a484c;fill-opacity:1"
     transform="matrix(0.61442448,0,0,0.61442448,371.21423,549.43994)" />
  <g
     id="g9891"
     style="fill:#4a484c;fill-opacity:1"
     transform="matrix(0.61442448,0,0,0.61442448,371.21423,549.43994)" />
  <g
     id="g9893"
     style="fill:#4a484c;fill-opacity:1"
     transform="matrix(0.61442448,0,0,0.61442448,371.21423,549.43994)" />
  <g
     id="g9895"
     style="fill:#4a484c;fill-opacity:1"
     transform="matrix(0.61442448,0,0,0.61442448,371.21423,549.43994)" />
  <g
     id="g9897"
     style="fill:#4a484c;fill-opacity:1"
     transform="matrix(0.61442448,0,0,0.61442448,371.21423,549.43994)" />
  <g
     id="g9899"
     style="fill:#4a484c;fill-opacity:1"
     transform="matrix(0.61442448,0,0,0.61442448,371.21423,549.43994)" />
  <g
     id="g9901"
     style="fill:#4a484c;fill-opacity:1"
     transform="matrix(0.61442448,0,0,0.61442448,371.21423,549.43994)" />
  <g
     id="g9903"
     style="fill:#4a484c;fill-opacity:1"
     transform="matrix(0.61442448,0,0,0.61442448,371.21423,549.43994)" />
  <g
     id="g9905"
     style="fill:#4a484c;fill-opacity:1"
     transform="matrix(0.61442448,0,0,0.61442448,371.21423,549.43994)" />
  <g
     id="g9907"
     style="fill:#4a484c;fill-opacity:1"
     transform="matrix(0.61442448,0,0,0.61442448,371.21423,549.43994)" />
  <g
     id="g25584"
     transform="matrix(1.1969881,0,0,1.1969881,1157.036,-781.92324)">
    <path
       inkscape:export-ydpi="60"
       inkscape:export-xdpi="60"
       inkscape:connector-curvature="0"
       id="path10192"
       d="m -694.53195,653.24228 c -103.04368,0 -186.87696,83.83094 -186.87696,186.8711 0,44.70669 15.78836,85.79031 42.07032,117.98632 l -35.375,35.375 c -7.66689,7.6645 -7.66219,20.1058 0,27.7656 41.20337,41.2034 93.97336,66.6255 150.98633,73.2656 l -19.74219,85.7618 -7.34375,0 c -10.84243,0 -19.63282,8.7904 -19.63282,19.6328 10e-6,6.3617 3.0394,12 7.73047,15.5879 l -12.96484,0 c -10.84244,0 -19.63281,8.7884 -19.63281,19.6308 0,10.8425 8.79037,19.6328 19.63281,19.6328 l 162.29687,0 c 10.84245,0 19.63086,-8.7903 19.63086,-19.6328 0,-10.8424 -8.78841,-19.6308 -19.63086,-19.6308 l -12.96679,0 c 4.69107,-3.5879 7.73047,-9.2274 7.73047,-15.5879 0,-10.8424 -8.79038,-19.6328 -19.63282,-19.6328 l -7.3457,0 -19.69531,-85.5567 c 57.71668,-6.3041 111.18184,-31.8244 152.82812,-73.4707 99.87166,-99.87281 99.87166,-262.37636 0,-362.24802 -7.66689,-7.66572 -20.0999,-7.66572 -27.76562,0 l -36.31641,36.31836 c -32.19601,-26.28196 -73.27885,-42.06836 -117.98437,-42.06836 z m -4.03516,45.56641 c 2.21047,-0.0118 4.46073,0.12146 6.73828,0.4082 9.47035,1.21251 17.86019,4.88215 24.28321,10.15821 10.15885,-4.58787 23.23471,-4.85005 35.6875,0.29492 10.71595,4.42402 18.94229,11.96035 23.5957,20.64453 8.32371,1.83515 16.74513,6.26078 23.92187,13.14258 10.19162,9.76561 15.56598,22.28337 15.53321,33.6875 12.38728,6.88181 20.25241,18.71148 19.69531,31.32812 3.3098,5.04666 5.80053,10.97868 7.11133,17.5 2.2612,11.30583 0.55665,22.2506 -4.03125,30.90235 0.3277,19.10519 -10.38861,35.58927 -26.51172,38.80078 -1.04866,0.19662 -2.09784,0.35905 -3.14649,0.45703 0.5571,3.96556 0.4931,7.99657 -0.32617,12.02734 -4.62064,23.29979 -31.36293,37.62088 -59.74219,31.98438 -1.27771,-0.2622 -2.5555,-0.55707 -3.80078,-0.88477 -4.22739,6.7832 -13.00976,3.86719 -13.00976,3.86719 l 0,25.10156 c 0,2.6872 -1.01489,5.24474 -2.88281,7.21094 l -13.89454,14.64844 c -3.24395,3.4409 -9.01367,1.11343 -9.01367,-3.60547 l 0,-28.37891 c -0.85203,-25.594 -10.25638,-38.24325 -18.28515,-43.06055 -10.81427,-6.52128 -10.64953,-20.08877 -10.58399,-25.03711 -8.52033,4.48955 -21.99094,7.0453 -33.26367,5.76758 -50.85948,-5.86592 -53.51393,-40.07789 -55.18555,-45.68164 -14.84471,1.11419 -28.47631,-5.17722 -34.375,-17.26953 -0.81926,-1.70374 -1.4748,-3.47454 -1.93359,-5.24414 -4.91557,-2.91625 -8.94618,-7.07899 -11.50195,-12.32227 -3.47433,-7.07876 -3.70432,-15.07303 -1.2793,-22.67578 -4.0311,-12.5511 -0.45707,-28.38055 10.48828,-40.63672 4.75172,-5.30882 10.28827,-9.33929 16.12109,-11.96093 1.6713,-2.75272 3.67081,-5.44 5.93165,-7.9961 9.79837,-10.97812 22.74265,-16.87586 34.63867,-16.9414 8.3237,-6.39024 19.56521,-11.24124 32.3457,-13.24024 10.06054,-1.57298 19.76049,-1.17912 28.24805,0.78711 5.53002,-2.40863 11.79631,-3.74787 18.42773,-3.7832 z m 171.59766,2.45312 c 71.03447,85.11942 66.61799,212.33201 -13.26172,292.21289 -40.96488,40.9637 -95.42771,63.5215 -153.35938,63.5215 -51.33505,0 -99.94965,-17.7133 -138.85742,-50.2559 l 20.97656,-20.97653 c 32.03858,25.77323 72.71444,41.22463 116.93946,41.22463 103.04133,0 186.87304,-83.83134 186.87304,-186.87502 0,-44.22267 -15.4533,-84.89814 -41.22656,-116.93555 l 21.91602,-21.91602 z"
       style="fill:#4a484c;fill-opacity:1" />
    <text
       inkscape:export-ydpi="60"
       inkscape:export-xdpi="60"
       sodipodi:linespacing="125%"
       id="text5122"
       y="839.2804"
       x="-837.17206"
       style="font-style:normal;font-weight:normal;font-size:23.12953758px;line-height:125%;font-family:sans-serif;letter-spacing:0px;word-spacing:0px;fill:#000000;fill-opacity:1;stroke:none;stroke-width:1px;stroke-linecap:butt;stroke-linejoin:miter;stroke-opacity:1"
       xml:space="preserve"><tspan
         style="font-style:normal;font-variant:normal;font-weight:normal;font-stretch:normal;font-size:83.26633453px;font-family:QuadonW00-Regular;-inkscape-font-specification:QuadonW00-Regular;fill:#318dde;fill-opacity:1"
         y="839.2804"
         x="-837.17206"
         id="tspan5124"
         sodipodi:role="line">TIBSCI</tspan></text>
  </g>
  <text
     xml:space="preserve"
     style="font-style:normal;font-weight:normal;font-size:25px;line-height:125%;font-family:sans-serif;letter-spacing:0px;word-spacing:0px;fill:#000000;fill-opacity:1;stroke:none;stroke-width:1px;stroke-linecap:butt;stroke-linejoin:miter;stroke-opacity:1"
     x="-2066.9214"
     y="-763.66632"
     id="text17273"
     sodipodi:linespacing="125%"><tspan
       sodipodi:role="line"
       id="tspan17275"
       x="-2066.9214"
       y="-763.66632" /></text>
</svg>
